{"title":"The Prince 2014 BRRiP AC3 XViD-sC0rp","uid":11216037,"size":1486866177,"categoryP":"video","categoryS":"movies","magnet":"?xt=urn:btih:63d57d7cf65672d9d69f74174825e063f566860d&amp;dn=The+Prince+2014+BRRiP+AC3+XViD-sC0rp&amp;tr=udp%3A%2F%2Ftracker.openbittorrent.com%3A80&amp;tr=udp%3A%2F%2Fopen.demonii.com%3A1337&amp;tr=udp%3A%2F%2Ftracker.coppersurfer.tk%3A6969&amp;tr=udp%3A%2F%2Fexodus.desync.com%3A6969","seeders":1,"leechers":1,"uploader":"sC0rp-ET","files":-1,"time":1413327658,"description":"General\nComplete name                            : C:DownloadsThe Prince 2014 BRRiP AC3 XViD-sC0rpsC0rp-the.prince.2014.brrip.ac3.xvid.avi\nFormat                                   : AVI\nFormat/Info                              : Audio Video Interleave\nFile size                                : 1.37 GiB\nDuration                                 : 1h 30mn\nOverall bit rate                         : 2 162 Kbps\nOriginal source form/Distributed by      : The.Prince.2014.720p.BluRay.DTS.x264-HDA\nMovie name                               : sC0rp-the.prince.2014.brrip.ac3.xvid\nDirector                                 : sC0rp\nGenre                                    : Action / 14-10-2014\nWriting application                      : VirtualDub build 32593/release\nCopyright                                : sC0rp\nComment                                  : sC0rp\n\nVideo\nID                                       : 0\nFormat                                   : MPEG-4 Visual\nFormat profile                           : Advanced Simple@L5\nFormat settings, BVOP                    : 2\nFormat settings, QPel                    : No\nFormat settings, GMC                     : No warppoints\nFormat settings, Matrix                  : Default (H.263)\nMuxing mode                              : Packed bitstream\nCodec ID                                 : XVID\nCodec ID/Hint                            : XviD\nDuration                                 : 1h 30mn\nBit rate                                 : 1 705 Kbps\nWidth                                    : 720 pixels\nHeight                                   : 304 pixels\nDisplay aspect ratio                     : 2.35:1\nFrame rate                               : 23.976 fps\nColor space                              : YUV\nChroma subsampling                       : 4:2:0\nBit depth                                : 8 bits\nScan type                                : Progressive\nCompression mode                         : Lossy\nBits/(Pixel*Frame)                       : 0.325\nStream size                              : 1.08 GiB (79%)\nWriting library                          : XviD 64\n\nAudio\nID                                       : 1\nFormat                                   : AC-3\nFormat/Info                              : Audio Coding 3\nMode extension                           : CM (complete main)\nFormat settings, Endianness              : Big\nCodec ID                                 : 2000\nDuration                                 : 1h 30mn\nBit rate mode                            : Constant\nBit rate                                 : 448 Kbps\nChannel(s)                               : 6 channels\nChannel positions                        : Front: L C R, Side: L R, LFE\nSampling rate                            : 48.0 KHz\nBit depth                                : 16 bits\nCompression mode                         : Lossy\nStream size                              : 290 MiB (21%)\nAlignment                                : Aligned on interleaves\nInterleave, duration                     : 42 ms (1.00 video frame)\nInterleave, preload duration             : 512 ms\nLanguage                                 : English","torrent":{"xt":"urn:btih:63d57d7cf65672d9d69f74174825e063f566860d","amp;dn":"The+Prince+2014+BRRiP+AC3+XViD-sC0rp","amp;tr":["udp%3A%2F%2Ftracker.openbittorrent.com%3A80","udp%3A%2F%2Fopen.demonii.com%3A1337","udp%3A%2F%2Ftracker.coppersurfer.tk%3A6969","udp%3A%2F%2Fexodus.desync.com%3A6969"],"infoHash":"63d57d7cf65672d9d69f74174825e063f566860d","infoHashBuffer":{"type":"Buffer","data":[99,213,125,124,246,86,114,217,214,159,116,23,72,37,224,99,245,102,134,13]},"announce":[],"urlList":[]}}